{
  "accessors": [
    {
      "bufferView": 2,
      "componentType": 5126,
      "count": 15460,
      "max": [
        0.40531599521636963,
        1.0013560056686401,
        0.236394003033638
      ],
      "min": [
        -0.40878498554229736,
        -1.0002570152282715,
        -0.24753400683403015
      ],
      "type": "VEC3"
    },
    {
      "bufferView": 2,
      "byteOffset": 185520,
      "componentType": 5126,
      "count": 15460,
      "max": [
        0.9999698996543884,
        0.999538242816925,
        0.9999828338623047
      ],
      "min": [
        -0.9997900724411011,
        -0.9999164938926697,
        -0.9999988079071045
      ],
      "type": "VEC3"
    },
    {
      "bufferView": 1,
      "componentType": 5126,
      "count": 15460,
      "max": [
        0.994350016117096,
        0.9991859793663025
      ],
      "min": [
        0.0008140000281855464,
        0.0008140000281855464
      ],
      "type": "VEC2"
    },
    {
      "bufferView": 0,
      "componentType": 5125,
      "count": 65307,
      "type": "SCALAR"
    },
    {
      "bufferView": 2,
      "byteOffset": 371040,
      "componentType": 5126,
      "count": 13082,
      "max": [
        0.7769659757614136,
        0.9986090064048767,
        0.18386399745941162
      ],
      "min": [
        -0.778872013092041,
        -1.0043920278549194,
        -0.18649299442768097
      ],
      "type": "VEC3"
    },
    {
      "bufferView": 2,
      "byteOffset": 528024,
      "componentType": 5126,
      "count": 13082,
      "max": [
        0.9998711347579956,
        0.999994695186615,
        0.9999996423721313
      ],
      "min": [
        -0.9998708963394165,
        -0.9999668002128601,
        -0.9999926090240479
      ],
      "type": "VEC3"
    },
    {
      "bufferView": 1,
      "byteOffset": 123680,
      "componentType": 5126,
      "count": 13082,
      "max": [
        0.9514170289039612,
        0.9993759989738464
      ],
      "min": [
        0.000623999978415668,
        0.000623999978415668
      ],
      "type": "VEC2"
    },
    {
      "bufferView": 0,
      "byteOffset": 261228,
      "componentType": 5125,
      "count": 59490,
      "type": "SCALAR"
    },
    {
      "bufferView": 2,
      "byteOffset": 685008,
      "componentType": 5126,
      "count": 13422,
      "max": [
        0.45530301332473755,
        1.0051939487457275,
        0.3808479905128479
      ],
      "min": [
        -0.4226120114326477,
        -1.0013220310211182,
        -0.38468798995018005
      ],
      "type": "VEC3"
    },
    {
      "bufferView": 2,
      "byteOffset": 846072,
      "componentType": 5126,
      "count": 13422,
      "max": [
        0.9999796748161316,
        0.9996544718742371,
        0.9999940991401672
      ],
      "min": [
        -0.9999286532402039,
        -0.9998425841331482,
        -0.9999002814292908
      ],
      "type": "VEC3"
    },
    {
      "bufferView": 1,
      "byteOffset": 228336,
      "componentType": 5126,
      "count": 13422,
      "max": [
        0.9827629923820496,
        0.9991700053215027
      ],
      "min": [
        0.0008299999753944576,
        0.0008299999753944576
      ],
      "type": "VEC2"
    },
    {
      "bufferView": 0,
      "byteOffset": 499188,
      "componentType": 5125,
      "count": 57150,
      "type": "SCALAR"
    },
    {
      "bufferView": 2,
      "byteOffset": 1007136,
      "componentType": 5126,
      "count": 13551,
      "max": [
        0.6248570084571838,
        0.9981669783592224,
        0.18666499853134155
      ],
      "min": [
        -0.6300910115242004,
        -1.000607967376709,
        -0.18355999886989594
      ],
      "type": "VEC3"
    },
    {
      "bufferView": 2,
      "byteOffset": 1169748,
      "componentType": 5126,
      "count": 13551,
      "max": [
        0.9999194145202637,
        0.9988242387771606,
        0.9999989867210388
      ],
      "min": [
        -0.9999988675117493,
        -0.9999337196350098,
        -0.9999688267707825
      ],
      "type": "VEC3"
    },
    {
      "bufferView": 1,
      "byteOffset": 335712,
      "componentType": 5126,
      "count": 13551,
      "max": [
        0.9992009997367859,
        0.9969199895858765
      ],
      "min": [
        0.0007989999721758068,
        0.0007989999721758068
      ],
      "type": "VEC2"
    },
    {
      "bufferView": 0,
      "byteOffset": 727788,
      "componentType": 5125,
      "count": 57648,
      "type": "SCALAR"
    },
    {
      "bufferView": 2,
      "byteOffset": 1332360,
      "componentType": 5126,
      "count": 17969,
      "max": [
        0.3173080086708069,
        0.9982969760894775,
        0.2215149998664856
      ],
      "min": [
        -0.3215489983558655,
        -0.9996129870414734,
        -0.22077199816703796
      ],
      "type": "VEC3"
    },
    {
      "bufferView": 2,
      "byteOffset": 1547988,
      "componentType": 5126,
      "count": 17969,
      "max": [
        0.999917209148407,
        0.9998336434364319,
        0.9999745488166809
      ],
      "min": [
        -0.9999871253967285,
        -0.9999983310699463,
        -0.9997860789299011
      ],
      "type": "VEC3"
    },
    {
      "bufferView": 1,
      "byteOffset": 444120,
      "componentType": 5126,
      "count": 17969,
      "max": [
        0.9987829923629761,
        0.9988369941711426
      ],
      "min": [
        0.0011630000080913305,
        0.0011630000080913305
      ],
      "type": "VEC2"
    },
    {
      "bufferView": 0,
      "byteOffset": 958380,
      "componentType": 5125,
      "count": 68349,
      "type": "SCALAR"
    }
  ],
  "asset": {
    "extras": {
      "author": "Trident.AI (https://sketchfab.com/Trident.AI)",
      "license": "SKETCHFAB Standard (https://sketchfab.com/licenses)",
      "source": "https://sketchfab.com/3d-models/egyptian-people-b24eba1c3d56439a9dda74fc84065c37",
      "title": "Egyptian People"
    },
    "generator": "Sketchfab-16.62.0",
    "version": "2.0"
  },
  "bufferViews": [
    {
      "buffer": 0,
      "byteLength": 1231776,
      "name": "floatBufferViews",
      "target": 34963
    },
    {
      "buffer": 0,
      "byteLength": 587872,
      "byteOffset": 1231776,
      "byteStride": 8,
      "name": "floatBufferViews",
      "target": 34962
    },
    {
      "buffer": 0,
      "byteLength": 1763616,
      "byteOffset": 1819648,
      "byteStride": 12,
      "name": "floatBufferViews",
      "target": 34962
    }
  ],
  "buffers": [
    {
      "byteLength": 3583264,
      "uri": "scene.bin"
    }
  ],
  "images": [
    {
      "uri": "textures/Material.001_baseColor.png"
    },
    {
      "uri": "textures/Material.002_baseColor.png"
    },
    {
      "uri": "textures/Material.003_baseColor.png"
    },
    {
      "uri": "textures/Material.004_baseColor.png"
    },
    {
      "uri": "textures/Material.005_baseColor.png"
    }
  ],
  "materials": [
    {
      "doubleSided": true,
      "name": "Material.001",
      "pbrMetallicRoughness": {
        "baseColorTexture": {
          "index": 0
        },
        "metallicFactor": 0.0,
        "roughnessFactor": 0.9552786404500042
      }
    },
    {
      "doubleSided": true,
      "name": "Material.002",
      "pbrMetallicRoughness": {
        "baseColorTexture": {
          "index": 1
        },
        "metallicFactor": 0.0,
        "roughnessFactor": 0.9552786404500042
      }
    },
    {
      "doubleSided": true,
      "name": "Material.003",
      "pbrMetallicRoughness": {
        "baseColorTexture": {
          "index": 2
        },
        "metallicFactor": 0.0,
        "roughnessFactor": 0.9552786404500042
      }
    },
    {
      "doubleSided": true,
      "name": "Material.004",
      "pbrMetallicRoughness": {
        "baseColorTexture": {
          "index": 3
        },
        "metallicFactor": 0.0,
        "roughnessFactor": 0.9552786404500042
      }
    },
    {
      "doubleSided": true,
      "name": "Material.005",
      "pbrMetallicRoughness": {
        "baseColorTexture": {
          "index": 4
        },
        "metallicFactor": 0.0,
        "roughnessFactor": 0.9552786404500042
      }
    }
  ],
  "meshes": [
    {
      "name": "Commander_Material.001_0",
      "primitives": [
        {
          "attributes": {
            "NORMAL": 1,
            "POSITION": 0,
            "TEXCOORD_0": 2
          },
          "indices": 3,
          "material": 0,
          "mode": 4
        }
      ]
    },
    {
      "name": "Slave_Material.002_0",
      "primitives": [
        {
          "attributes": {
            "NORMAL": 5,
            "POSITION": 4,
            "TEXCOORD_0": 6
          },
          "indices": 7,
          "material": 1,
          "mode": 4
        }
      ]
    },
    {
      "name": "Warrior_Material.003_0",
      "primitives": [
        {
          "attributes": {
            "NORMAL": 9,
            "POSITION": 8,
            "TEXCOORD_0": 10
          },
          "indices": 11,
          "material": 2,
          "mode": 4
        }
      ]
    },
    {
      "name": "Resident_Material.004_0",
      "primitives": [
        {
          "attributes": {
            "NORMAL": 13,
            "POSITION": 12,
            "TEXCOORD_0": 14
          },
          "indices": 15,
          "material": 3,
          "mode": 4
        }
      ]
    },
    {
      "name": "King_Material.005_0",
      "primitives": [
        {
          "attributes": {
            "NORMAL": 17,
            "POSITION": 16,
            "TEXCOORD_0": 18
          },
          "indices": 19,
          "material": 4,
          "mode": 4
        }
      ]
    }
  ],
  "nodes": [
    {
      "children": [
        1
      ],
      "matrix": [
        1.0,
        0.0,
        0.0,
        0.0,
        0.0,
        2.220446049250313e-16,
        -1.0,
        0.0,
        0.0,
        1.0,
        2.220446049250313e-16,
        0.0,
        0.0,
        0.0,
        0.0,
        1.0
      ],
      "name": "Sketchfab_model"
    },
    {
      "children": [
        2
      ],
      "matrix": [
        0.009999999776482582,
        0.0,
        0.0,
        0.0,
        0.0,
        0.0,
        0.009999999776482582,
        0.0,
        0.0,
        -0.009999999776482582,
        0.0,
        0.0,
        0.0,
        0.0,
        0.0,
        1.0
      ],
      "name": "168e8f2a66cd44e59e2736706935c95e.fbx"
    },
    {
      "children": [
        3,
        5,
        7,
        9,
        11
      ],
      "name": "RootNode"
    },
    {
      "children": [
        4
      ],
      "matrix": [
        100.0,
        0.0,
        0.0,
        0.0,
        0.0,
        99.99999999999972,
        -7.5497901264043296e-06,
        0.0,
        0.0,
        7.5497901264043296e-06,
        99.99999999999972,
        0.0,
        0.0,
        0.0,
        0.0,
        1.0
      ],
      "name": "Commander"
    },
    {
      "mesh": 0,
      "name": "Commander_Material.001_0"
    },
    {
      "children": [
        6
      ],
      "matrix": [
        100.0,
        0.0,
        0.0,
        0.0,
        0.0,
        99.99999999999972,
        -7.5497901264043296e-06,
        0.0,
        0.0,
        7.5497901264043296e-06,
        99.99999999999972,
        0.0,
        137.19236755371094,
        0.0,
        0.0,
        1.0
      ],
      "name": "Slave"
    },
    {
      "mesh": 1,
      "name": "Slave_Material.002_0"
    },
    {
      "children": [
        8
      ],
      "matrix": [
        123.36483001708984,
        0.0,
        0.0,
        0.0,
        0.0,
        123.36483001708949,
        -9.313785756085733e-06,
        0.0,
        0.0,
        9.313785756085733e-06,
        123.36483001708949,
        0.0,
        -131.6110382080078,
        22.326257705688477,
        -1.6855856301845051e-06,
        1.0
      ],
      "name": "Warrior"
    },
    {
      "mesh": 2,
      "name": "Warrior_Material.003_0"
    },
    {
      "children": [
        10
      ],
      "matrix": [
        100.0,
        0.0,
        0.0,
        0.0,
        0.0,
        99.99999999999972,
        -7.5497901264043296e-06,
        0.0,
        0.0,
        7.5497901264043296e-06,
        99.99999999999972,
        0.0,
        285.0064392089844,
        0.0,
        0.0,
        1.0
      ],
      "name": "Resident"
    },
    {
      "mesh": 3,
      "name": "Resident_Material.004_0"
    },
    {
      "children": [
        12
      ],
      "matrix": [
        100.0,
        0.0,
        0.0,
        0.0,
        0.0,
        99.99999999999972,
        -7.5497901264043296e-06,
        0.0,
        0.0,
        7.5497901264043296e-06,
        99.99999999999972,
        0.0,
        -257.4218444824219,
        0.0,
        0.0,
        1.0
      ],
      "name": "King"
    },
    {
      "mesh": 4,
      "name": "King_Material.005_0"
    }
  ],
  "samplers": [
    {
      "magFilter": 9729,
      "minFilter": 9987,
      "wrapS": 10497,
      "wrapT": 10497
    }
  ],
  "scene": 0,
  "scenes": [
    {
      "name": "Sketchfab_Scene",
      "nodes": [
        0
      ]
    }
  ],
  "textures": [
    {
      "sampler": 0,
      "source": 0
    },
    {
      "sampler": 0,
      "source": 1
    },
    {
      "sampler": 0,
      "source": 2
    },
    {
      "sampler": 0,
      "source": 3
    },
    {
      "sampler": 0,
      "source": 4
    }
  ]
}
